<?xml version="1.0" standalone="no"?>
<!DOCTYPE svg PUBLIC "-//W3C//DTD SVG 20010904//EN"
 "http://www.w3.org/TR/2001/REC-SVG-20010904/DTD/svg10.dtd">
<svg version="1.0" xmlns="http://www.w3.org/2000/svg"
 width="200.000000pt" height="200.000000pt" viewBox="0 0 200.000000 200.000000"
 preserveAspectRatio="xMidYMid meet">

<g transform="translate(0.000000,200.000000) scale(0.100000,-0.100000)"
fill="#000000" stroke="none">
<path d="M965 1736 l-190 -32 -123 -73 c-67 -40 -129 -83 -137 -94 -24 -38
-28 -74 -12 -107 l15 -30 -176 0 -177 0 -80 -44 c-44 -24 -81 -51 -83 -60 -3
-11 22 -28 89 -61 l93 -45 160 0 160 0 -32 -33 c-60 -61 -50 -147 21 -183 17
-9 34 -18 36 -20 2 -2 -6 -15 -18 -30 -24 -31 -27 -83 -7 -122 14 -27 40 -45
83 -57 15 -4 23 -16 28 -44 15 -93 138 -127 194 -55 18 23 21 41 21 120 0 52
4 94 9 94 14 0 135 -95 168 -133 17 -19 41 -62 53 -94 60 -161 184 -308 313
-371 72 -36 102 -38 102 -8 0 13 -15 24 -50 37 -63 24 -152 93 -206 161 -23
29 -68 107 -100 173 -64 134 -81 154 -229 261 -52 37 -116 86 -142 109 -64 55
-207 224 -215 254 -10 38 9 74 48 94 53 25 77 12 194 -102 79 -77 132 -118
248 -190 142 -88 183 -103 175 -64 -2 9 -70 58 -153 110 l-149 93 436 0 435 0
6 -37 c3 -21 20 -145 38 -275 32 -234 33 -238 56 -238 18 0 23 5 23 28 0 25
-52 414 -65 490 l-6 32 70 0 c65 0 72 2 87 26 27 40 29 113 5 152 l-21 32
-118 0 -119 0 -232 185 -233 185 -51 -1 c-29 0 -137 -15 -242 -33z m463 -163
c102 -82 193 -153 201 -160 13 -10 -13 -12 -129 -13 l-146 0 -78 65 -78 65
-158 0 -158 0 -133 -66 c-145 -73 -168 -75 -198 -22 -25 45 -5 69 126 147
l118 70 175 29 c280 47 240 57 458 -115z m-256 -92 c13 -6 41 -26 63 -45 l40
-35 -275 0 -275 0 70 37 c64 33 80 37 175 42 170 10 178 10 202 1z m-676 -153
c-9 -12 -16 -37 -16 -55 l0 -33 -142 0 c-133 0 -148 2 -206 27 l-64 27 54 27
c52 27 57 28 221 29 l168 0 -15 -22z m1448 6 c8 -20 8 -58 0 -78 -6 -14 -64
-16 -555 -16 l-548 0 -58 55 -58 54 606 1 c544 0 607 -2 613 -16z m-1364 -234
l43 -51 -23 -24 c-13 -14 -33 -25 -45 -25 -33 0 -75 37 -75 67 0 25 34 83 50
83 4 0 27 -23 50 -50z m116 -247 c-35 -35 -73 -63 -84 -63 -33 0 -72 38 -72
71 0 23 13 45 56 89 l56 59 54 -47 54 -47 -64 -62z m84 -83 c0 -86 -1 -90 -26
-107 -24 -15 -29 -15 -53 -2 -20 11 -27 24 -29 53 -3 35 2 44 49 92 30 30 55
54 56 54 2 0 3 -40 3 -90z"/>
</g>
</svg>
