<?xml version="1.0" standalone="no"?>
<!DOCTYPE svg PUBLIC "-//W3C//DTD SVG 20010904//EN"
 "http://www.w3.org/TR/2001/REC-SVG-20010904/DTD/svg10.dtd">
<svg version="1.0" xmlns="http://www.w3.org/2000/svg"
 width="512.000000pt" height="512.000000pt" viewBox="0 0 512.000000 512.000000"
 preserveAspectRatio="xMidYMid meet">

<g transform="translate(0.000000,512.000000) scale(0.100000,-0.100000)"
fill="#000000" stroke="none">
<path d="M3505 4909 c-173 -25 -398 -119 -540 -226 -50 -38 -539 -521 -1296
-1279 -1271 -1274 -1256 -1259 -1343 -1432 -257 -512 -112 -1155 339 -1507
223 -174 484 -265 759 -265 251 0 474 67 691 208 54 34 357 331 1289 1261 758
757 1241 1246 1279 1296 72 96 158 269 191 386 136 479 -32 1002 -419 1304
-165 129 -356 214 -559 250 -95 16 -291 18 -391 4z m311 -290 c202 -28 376
-113 526 -257 158 -152 254 -347 280 -573 26 -218 -38 -459 -169 -643 -34 -47
-1780 -1806 -1794 -1806 -3 0 -4 24 -1 53 13 156 -41 397 -127 572 -130 262
-313 443 -577 572 -167 81 -411 133 -561 121 -29 -3 -53 -2 -53 1 0 14 1759
1760 1806 1794 193 138 438 198 670 166z m-2151 -2286 c333 -95 574 -336 668
-668 28 -101 35 -306 12 -416 -59 -294 -238 -526 -509 -659 -221 -110 -455
-127 -690 -53 -143 45 -254 112 -368 221 -113 109 -194 239 -241 388 -74 235
-57 469 53 690 130 265 358 444 645 508 100 22 335 16 430 -11z"/>
<path d="M2797 3633 c-417 -417 -763 -766 -768 -776 -14 -25 14 -67 44 -67 16
0 234 212 784 762 637 637 763 767 763 790 0 27 -23 48 -52 48 -7 0 -354 -341
-771 -757z"/>
</g>
</svg>
