<?xml version="1.0" standalone="no"?>
<!DOCTYPE svg PUBLIC "-//W3C//DTD SVG 20010904//EN"
 "http://www.w3.org/TR/2001/REC-SVG-20010904/DTD/svg10.dtd">
<svg version="1.0" xmlns="http://www.w3.org/2000/svg"
 width="512.000000pt" height="512.000000pt" viewBox="0 0 512.000000 512.000000"
 preserveAspectRatio="xMidYMid meet">

<g transform="translate(0.000000,512.000000) scale(0.100000,-0.100000)"
fill="#000000" stroke="none">
<path d="M2265 5109 c-31 -17 -2234 -2221 -2251 -2251 -11 -22 -14 -82 -14
-297 0 -282 4 -309 44 -330 14 -7 150 -12 396 -13 l375 -3 67 -32 c139 -65
217 -184 226 -345 l5 -90 -557 -557 -556 -556 0 -288 0 -289 29 -29 29 -29
1389 0 c1070 1 1393 3 1409 13 11 7 389 399 839 872 450 473 954 997 1121
1165 l304 306 0 286 0 287 -24 28 -24 28 -393 2 c-265 2 -404 6 -428 14 -139
45 -242 153 -271 285 l-11 48 576 576 575 575 0 288 0 289 -29 29 -29 29
-1389 0 c-978 -1 -1394 -4 -1408 -11z m1535 -1184 l-1025 -1025 -1240 0 -1240
0 1025 1025 1025 1025 1240 0 1240 0 -1025 -1025z m133 -387 c-560 -560 -1021
-1018 -1025 -1018 -5 0 -8 57 -8 127 l0 128 1023 1023 1022 1022 3 -132 3
-132 -1018 -1018z m15 -545 c68 -71 146 -120 235 -148 75 -24 88 -25 358 -25
153 0 279 -3 279 -8 0 -4 -79 -86 -176 -182 -96 -96 -556 -575 -1022 -1063
l-846 -888 -341 3 c-322 3 -343 4 -393 25 -102 42 -183 122 -225 225 -21 51
-22 68 -25 483 -4 458 0 511 43 596 35 69 106 136 183 172 l67 32 388 5 387 5
482 482 482 482 39 -74 c21 -40 60 -95 85 -122z m-1218 -433 l0 -170 -302 0
c-345 0 -396 -7 -511 -67 -128 -67 -222 -182 -273 -333 -18 -51 -19 -92 -19
-540 0 -448 1 -489 19 -540 69 -204 221 -343 421 -385 52 -11 145 -15 368 -15
l297 0 0 -170 0 -170 -1280 0 -1280 0 0 170 0 170 298 0 c337 0 392 7 511 66
138 68 250 212 286 369 14 57 15 138 13 534 -3 457 -3 467 -26 529 -51 142
-144 249 -274 317 -109 58 -163 65 -505 65 l-303 0 0 170 0 170 1280 0 1280 0
0 -170z m1922 -435 c-228 -229 -1034 -1070 -1734 -1810 -18 -20 -19 -18 -16
116 l3 136 769 809 c424 445 883 923 1020 1062 l251 253 3 -133 3 -132 -299
-301z m-3544 -935 l-3 -215 -32 -67 c-51 -109 -139 -182 -258 -212 -45 -12
-113 -16 -287 -16 -125 0 -228 3 -228 7 0 5 181 189 403 411 l402 402 3 -47
c2 -27 2 -145 0 -263z"/>
<path d="M3695 2785 c-35 -34 -33 -78 4 -116 18 -17 40 -29 56 -29 37 0 85 50
85 88 0 72 -94 109 -145 57z"/>
<path d="M3450 2527 c-8 -7 -39 -38 -67 -69 -61 -65 -68 -100 -29 -144 18 -21
32 -28 61 -28 33 0 45 8 101 66 57 58 64 70 64 105 0 28 -7 46 -23 61 -26 25
-82 29 -107 9z"/>
<path d="M3115 2172 c-17 -10 -52 -43 -78 -72 -38 -42 -47 -59 -47 -89 0 -49
33 -81 82 -81 40 0 56 11 122 88 54 61 61 105 24 140 -34 31 -68 35 -103 14z"/>
<path d="M2718 1762 c-62 -62 -68 -72 -68 -110 0 -32 6 -45 26 -61 49 -38 80
-29 156 47 59 59 68 73 68 104 0 28 -7 42 -31 62 -49 42 -73 35 -151 -42z"/>
<path d="M2379 1408 c-34 -35 -65 -73 -70 -86 -20 -51 25 -112 83 -112 34 0
123 78 153 133 32 60 -6 127 -73 127 -28 0 -43 -10 -93 -62z"/>
<path d="M2075 1085 c-37 -36 -34 -86 7 -120 38 -32 81 -29 116 11 26 29 28
54 7 93 -25 49 -90 57 -130 16z"/>
</g>
</svg>
