<?xml version="1.0" standalone="no"?>
<!DOCTYPE svg PUBLIC "-//W3C//DTD SVG 20010904//EN"
 "http://www.w3.org/TR/2001/REC-SVG-20010904/DTD/svg10.dtd">
<svg version="1.0" xmlns="http://www.w3.org/2000/svg"
 width="512.000000pt" height="512.000000pt" viewBox="0 0 512.000000 512.000000"
 preserveAspectRatio="xMidYMid meet">

<g transform="translate(0.000000,512.000000) scale(0.100000,-0.100000)"
fill="#000000" stroke="none">
<path d="M2045 4901 c-16 -10 -371 -360 -787 -777 -738 -741 -757 -760 -763
-804 -3 -25 -5 -169 -3 -320 3 -269 3 -276 26 -308 13 -17 33 -38 45 -45 16
-9 124 -13 400 -17 l379 -5 34 -37 34 -38 0 -352 0 -353 -450 -450 c-351 -350
-452 -458 -460 -485 -5 -19 -10 -159 -10 -310 0 -250 2 -279 20 -317 11 -25
33 -51 52 -63 33 -20 47 -20 1256 -20 1043 0 1227 2 1250 14 15 8 370 358 789
778 743 745 762 764 768 808 3 25 5 169 3 320 -3 269 -3 276 -26 308 -13 17
-33 38 -45 45 -16 9 -124 13 -400 17 l-379 5 -34 37 -34 38 0 352 0 353 450
450 c351 350 452 458 460 485 5 19 10 159 10 310 0 250 -2 279 -20 317 -11 25
-33 51 -52 63 -33 20 -47 20 -1258 20 -1185 0 -1226 -1 -1255 -19z m1560 -861
l-590 -590 -1010 0 -1010 0 590 590 590 590 1010 0 1010 0 -590 -590z m138
-322 l-588 -588 -3 87 -3 87 588 588 588 588 3 -87 3 -87 -588 -588z m-883
-683 l0 -115 -282 0 c-299 0 -340 -5 -427 -49 -66 -34 -138 -112 -174 -189
l-32 -67 0 -795 0 -795 32 -65 c57 -117 166 -202 291 -229 32 -6 161 -11 323
-11 l270 0 -3 -112 -3 -113 -1032 -3 -1033 -2 0 114 0 114 298 4 c272 3 301 5
348 24 116 47 204 136 247 250 22 59 22 64 25 784 2 451 -1 749 -7 790 -22
138 -108 251 -239 313 l-67 32 -302 3 -303 3 0 115 0 114 1035 0 1035 0 0
-115z m577 -557 c12 -32 31 -72 44 -89 l22 -31 -538 -538 c-492 -492 -537
-540 -531 -564 4 -17 15 -28 32 -32 24 -6 72 39 565 532 511 511 539 537 556
521 10 -9 45 -29 78 -44 60 -28 62 -28 294 -31 l234 -4 -589 -589 -589 -589
-355 0 c-389 0 -384 -1 -415 60 -13 25 -15 129 -15 742 0 546 3 719 13 737 6
13 25 34 40 45 27 20 42 21 400 26 261 4 378 9 392 17 11 6 90 82 175 168
l155 155 6 -217 c4 -188 8 -226 26 -275z m311 -1185 c-321 -321 -586 -583
-590 -583 -5 0 -8 37 -8 82 l0 83 588 588 587 587 3 -87 3 -87 -583 -583z
m-2338 -34 l0 -171 -34 -34 -34 -34 -173 0 -174 0 205 205 c113 113 206 205
207 205 2 0 3 -77 3 -171z"/>
</g>
</svg>
