<?xml version="1.0" standalone="no"?>
<!DOCTYPE svg PUBLIC "-//W3C//DTD SVG 20010904//EN"
 "http://www.w3.org/TR/2001/REC-SVG-20010904/DTD/svg10.dtd">
<svg version="1.0" xmlns="http://www.w3.org/2000/svg"
 width="128.000000pt" height="128.000000pt" viewBox="0 0 128.000000 128.000000"
 preserveAspectRatio="xMidYMid meet">

<g transform="translate(0.000000,128.000000) scale(0.100000,-0.100000)"
fill="#000000" stroke="none">
<path d="M330 1063 l-325 -218 0 -420 0 -420 310 -3 310 -2 325 217 325 218 0
100 0 100 -212 3 -213 2 -2 318 -3 317 -95 3 -95 2 -325 -217z m420 172 c0 -3
-129 -91 -286 -195 -270 -181 -288 -191 -327 -188 l-42 3 285 192 c256 172
289 192 328 192 23 1 42 -1 42 -4z m60 -310 l0 -295 -286 -191 c-157 -104
-292 -193 -300 -196 -12 -4 -14 39 -14 286 l0 291 298 199 c163 110 298 200
300 200 1 1 2 -132 2 -294z m-638 -432 l3 -318 213 -3 212 -2 0 -65 0 -65
-280 0 -280 0 0 385 0 385 65 0 65 0 2 -317z m1008 104 c0 -2 -130 -90 -288
-196 l-288 -192 -170 3 -169 3 290 192 290 193 168 0 c92 0 167 -2 167 -3z
m60 -82 l0 -55 -300 -200 -300 -200 0 60 0 60 292 195 c161 107 296 195 300
195 5 0 8 -25 8 -55z"/>
</g>
</svg>
