<?xml version="1.0" standalone="no"?>
<!DOCTYPE svg PUBLIC "-//W3C//DTD SVG 20010904//EN"
 "http://www.w3.org/TR/2001/REC-SVG-20010904/DTD/svg10.dtd">
<svg version="1.0" xmlns="http://www.w3.org/2000/svg"
 width="200.000000pt" height="200.000000pt" viewBox="0 0 200.000000 200.000000"
 preserveAspectRatio="xMidYMid meet">

<g transform="translate(0.000000,200.000000) scale(0.100000,-0.100000)"
fill="#000000" stroke="none">
<path d="M817 1886 c-80 -29 -149 -95 -176 -169 -6 -16 -14 -59 -17 -97 -6
-66 -8 -69 -35 -75 -54 -12 -69 -46 -69 -157 0 -97 1 -100 29 -129 16 -16 39
-29 50 -29 20 0 21 -5 21 -124 0 -128 8 -154 43 -140 14 5 16 48 19 362 l3
357 28 48 c19 32 44 56 80 77 l52 30 237 -2 236 -3 43 -30 c27 -19 54 -50 71
-84 l28 -53 0 -363 0 -363 -28 -53 c-20 -39 -41 -62 -77 -84 -46 -29 -53 -30
-179 -33 -164 -3 -178 -6 -174 -35 3 -22 6 -22 148 -22 169 0 214 12 280 77
71 68 84 110 88 286 4 143 5 152 24 152 11 0 33 13 49 29 28 29 29 32 29 129
0 111 -15 145 -69 157 -27 6 -28 9 -34 74 -10 118 -57 196 -149 247 l-53 29
-230 2 c-176 2 -239 0 -268 -11z m-197 -497 c0 -90 -2 -100 -17 -97 -15 3 -18
17 -21 87 -3 94 0 111 23 111 12 0 15 -17 15 -101z m935 1 c0 -82 -2 -95 -17
-98 -16 -3 -18 7 -18 98 0 91 2 101 18 98 15 -3 17 -16 17 -98z"/>
<path d="M794 1609 c-17 -18 -19 -40 -22 -168 -3 -137 -2 -148 18 -174 l21
-27 259 0 259 0 20 26 c19 24 21 40 21 169 0 129 -2 145 -21 169 l-20 26 -258
0 c-249 0 -259 -1 -277 -21z m214 -42 c-5 -21 -162 -267 -170 -267 -10 0 -11
264 -1 273 3 4 44 7 90 7 65 0 84 -3 81 -13z m171 6 c0 -5 -40 -69 -88 -143
l-87 -135 -47 -3 c-26 -2 -47 -1 -47 2 0 3 24 43 53 88 30 46 70 109 90 141
36 56 38 57 82 57 25 0 45 -3 44 -7z m129 -136 c2 -108 0 -139 -11 -143 -7 -2
-61 -3 -119 -2 l-106 3 91 143 c81 129 93 143 116 140 l26 -3 3 -138z"/>
<path d="M695 918 c-2 -7 -13 -44 -25 -81 -23 -72 -19 -92 16 -85 13 2 25 25
41 77 13 41 21 81 19 88 -7 17 -45 17 -51 1z"/>
<path d="M504 898 c-4 -6 10 -44 32 -85 30 -57 43 -73 59 -71 31 4 28 27 -10
101 -36 66 -63 85 -81 55z"/>
<path d="M792 774 c-67 -38 -81 -56 -63 -78 8 -9 10 -28 6 -50 l-7 -35 78 -24
c85 -27 107 -26 102 6 -2 14 -18 26 -53 38 -41 14 -45 18 -22 18 38 1 96 -24
130 -57 25 -23 157 -215 157 -227 0 -2 -11 -15 -25 -29 -38 -39 -33 -80 21
-164 47 -73 62 -84 84 -57 11 13 5 27 -33 85 -26 38 -44 75 -42 82 6 14 86 68
102 68 6 0 34 -36 63 -80 53 -81 68 -92 90 -65 10 12 3 29 -41 96 -58 88 -97
116 -141 100 -21 -8 -29 1 -94 98 -39 58 -89 123 -112 143 -40 36 -118 68
-171 68 -23 1 -22 3 14 21 51 27 69 48 54 66 -16 19 -27 17 -97 -23z"/>
<path d="M390 756 c-21 -27 -4 -42 75 -65 59 -17 80 -19 91 -10 24 20 -1 44
-63 62 -32 8 -65 18 -74 22 -9 3 -22 -1 -29 -9z"/>
<path d="M468 604 c-50 -25 -68 -40 -68 -54 0 -35 26 -33 100 6 57 30 70 41
68 58 -4 31 -26 29 -100 -10z"/>
<path d="M674 576 c-9 -23 68 -156 89 -156 31 0 29 26 -7 99 -27 53 -41 71
-56 71 -12 0 -23 -7 -26 -14z"/>
<path d="M566 503 c-21 -66 -22 -80 -11 -92 23 -24 39 -6 63 68 25 78 24 101
-7 101 -16 0 -25 -15 -45 -77z"/>
</g>
</svg>
