<?xml version="1.0" standalone="no"?>
<!DOCTYPE svg PUBLIC "-//W3C//DTD SVG 20010904//EN"
 "http://www.w3.org/TR/2001/REC-SVG-20010904/DTD/svg10.dtd">
<svg version="1.0" xmlns="http://www.w3.org/2000/svg"
 width="512.000000pt" height="512.000000pt" viewBox="0 0 512.000000 512.000000"
 preserveAspectRatio="xMidYMid meet">

<g transform="translate(0.000000,512.000000) scale(0.100000,-0.100000)"
fill="#000000" stroke="none">
<path d="M2545 4909 c-31 -17 -2314 -2301 -2331 -2331 -12 -23 -14 -193 -14
-1148 0 -1217 -3 -1146 55 -1200 l27 -25 1131 -3 c773 -1 1140 1 1157 8 39 16
2338 2320 2345 2350 3 14 4 532 3 1152 l-3 1126 -25 27 c-54 58 17 55 -1202
55 -788 -1 -1129 -4 -1143 -11z m1935 -286 c0 -5 -440 -448 -977 -985 l-978
-978 -910 0 -910 0 985 985 985 985 902 0 c497 0 903 -3 903 -7z m150 -1046
l0 -902 -985 -985 -985 -985 0 910 0 910 977 977 c538 538 981 978 985 978 5
0 8 -406 8 -903z m-2270 -2152 l0 -935 -935 0 -935 0 0 935 0 935 935 0 935 0
0 -935z"/>
<path d="M669 2181 l-29 -29 0 -716 c0 -533 3 -722 12 -741 26 -56 6 -55 783
-55 l717 0 29 29 29 29 0 732 0 731 -25 24 -24 25 -731 0 -732 0 -29 -29z
m1351 -751 l0 -590 -590 0 -590 0 0 590 0 590 590 0 590 0 0 -590z"/>
</g>
</svg>
