<?xml version="1.0" standalone="no"?>
<!DOCTYPE svg PUBLIC "-//W3C//DTD SVG 20010904//EN"
 "http://www.w3.org/TR/2001/REC-SVG-20010904/DTD/svg10.dtd">
<svg version="1.0" xmlns="http://www.w3.org/2000/svg"
 width="512.000000pt" height="512.000000pt" viewBox="0 0 512.000000 512.000000"
 preserveAspectRatio="xMidYMid meet">

<g transform="translate(0.000000,512.000000) scale(0.100000,-0.100000)"
fill="#000000" stroke="none">
<path d="M2355 4110 c-11 -5 -535 -524 -1165 -1154 l-1145 -1146 0 -370 0
-370 33 -32 32 -33 1330 0 1330 0 1152 1153 1153 1152 0 370 0 370 -33 32 -32
33 -1318 2 c-724 1 -1326 -2 -1337 -7z m1320 -1230 l-1000 -1000 -1115 0
-1115 0 1000 1000 1000 1000 1115 0 1115 0 -1000 -1000z m168 -472 l-998 -998
-3 152 -3 152 998 998 998 998 3 -152 3 -152 -998 -998z m-1243 -968 l0 -200
-1160 0 -1160 0 0 200 0 200 1160 0 1160 0 0 -200z"/>
</g>
</svg>
