<?xml version="1.0" standalone="no"?>
<!DOCTYPE svg PUBLIC "-//W3C//DTD SVG 20010904//EN"
 "http://www.w3.org/TR/2001/REC-SVG-20010904/DTD/svg10.dtd">
<svg version="1.0" xmlns="http://www.w3.org/2000/svg"
 width="512.000000pt" height="512.000000pt" viewBox="0 0 512.000000 512.000000"
 preserveAspectRatio="xMidYMid meet">

<g transform="translate(0.000000,512.000000) scale(0.100000,-0.100000)"
fill="#000000" stroke="none">
<path d="M3240 5063 c-56 -57 -2033 -2191 -2097 -2266 l-33 -38 0 -507 0 -507
-555 -555 -555 -555 0 -288 0 -289 29 -29 29 -29 1389 0 c1070 1 1393 3 1409
13 11 7 389 399 839 872 450 473 954 997 1121 1165 l304 306 0 286 0 287 -24
28 -24 28 -434 5 -433 5 -60 29 c-76 38 -143 105 -181 181 l-29 60 -5 895 c-5
942 -4 926 -50 950 -11 6 -127 10 -300 10 l-282 0 -58 -57z m383 -135 c-11
-13 -454 -491 -983 -1063 l-962 -1040 -140 -3 -141 -3 39 45 c22 25 464 504
984 1065 l945 1021 139 0 139 0 -20 -22z m151 -1708 c63 -194 209 -335 396
-385 42 -11 124 -15 353 -15 163 0 297 -3 297 -8 0 -4 -79 -86 -176 -182 -96
-96 -556 -575 -1022 -1063 l-846 -888 -341 3 c-322 3 -343 4 -393 25 -102 42
-183 122 -225 225 -22 53 -22 56 -25 908 l-2 855 977 1056 978 1055 5 -765 c5
-703 7 -771 24 -821z m878 -1095 c-228 -229 -1034 -1070 -1734 -1810 -18 -20
-19 -18 -16 116 l3 136 774 814 c426 448 885 926 1020 1062 l246 248 3 -133 3
-132 -299 -301z m-3030 -322 l3 -848 26 -66 c57 -148 148 -253 272 -314 117
-57 173 -65 510 -65 l297 0 0 -170 0 -170 -1280 0 -1280 0 0 170 0 170 298 0
c337 0 392 7 511 66 94 47 183 134 233 230 69 132 68 107 68 1022 l0 822 170
0 169 0 3 -847z m-514 -613 l-3 -215 -32 -67 c-51 -109 -139 -182 -258 -212
-45 -12 -113 -16 -287 -16 -125 0 -228 3 -228 7 0 5 181 189 403 411 l402 402
3 -47 c2 -27 2 -145 0 -263z"/>
<path d="M3695 2785 c-35 -34 -33 -78 4 -116 18 -17 40 -29 56 -29 37 0 85 50
85 88 0 72 -94 109 -145 57z"/>
<path d="M3450 2527 c-8 -7 -39 -38 -67 -69 -61 -65 -68 -100 -29 -144 18 -21
32 -28 61 -28 33 0 45 8 101 66 57 58 64 70 64 105 0 28 -7 46 -23 61 -26 25
-82 29 -107 9z"/>
<path d="M3115 2172 c-17 -10 -52 -43 -78 -72 -38 -42 -47 -59 -47 -89 0 -49
33 -81 82 -81 40 0 56 11 122 88 54 61 61 105 24 140 -34 31 -68 35 -103 14z"/>
<path d="M2718 1762 c-62 -62 -68 -72 -68 -110 0 -32 6 -45 26 -61 49 -38 80
-29 156 47 59 59 68 73 68 104 0 28 -7 42 -31 62 -49 42 -73 35 -151 -42z"/>
<path d="M2379 1408 c-34 -35 -65 -73 -70 -86 -20 -51 25 -112 83 -112 34 0
123 78 153 133 32 60 -6 127 -73 127 -28 0 -43 -10 -93 -62z"/>
<path d="M2075 1085 c-37 -36 -34 -86 7 -120 38 -32 81 -29 116 11 26 29 28
54 7 93 -25 49 -90 57 -130 16z"/>
</g>
</svg>
