<?xml version="1.0" standalone="no"?>
<!DOCTYPE svg PUBLIC "-//W3C//DTD SVG 20010904//EN"
 "http://www.w3.org/TR/2001/REC-SVG-20010904/DTD/svg10.dtd">
<svg version="1.0" xmlns="http://www.w3.org/2000/svg"
 width="512.000000pt" height="512.000000pt" viewBox="0 0 512.000000 512.000000"
 preserveAspectRatio="xMidYMid meet">

<g transform="translate(0.000000,512.000000) scale(0.100000,-0.100000)"
fill="#000000" stroke="none">
<path d="M2315 4909 c-31 -17 -1524 -1511 -1541 -1541 -12 -23 -14 -246 -14
-1549 0 -1508 0 -1522 20 -1554 42 -69 -15 -65 1045 -65 811 0 960 2 983 14
33 18 1525 1512 1541 1543 7 14 11 125 11 330 0 288 -1 310 -20 340 -39 65
-22 63 -630 63 -608 0 -602 -1 -640 62 -18 29 -20 50 -20 178 l0 145 641 640
c352 352 647 652 655 667 11 22 14 86 14 334 0 290 -1 308 -20 339 -42 69 15
65 -1047 65 -669 -1 -964 -4 -978 -11z m1028 -871 l-593 -593 -742 3 -743 2
590 590 590 590 745 0 745 0 -592 -592z m140 -310 l-588 -588 -3 82 -3 82 588
588 588 588 3 -82 3 -82 -588 -588z m-893 -693 l0 -114 -497 -3 c-495 -3 -498
-3 -556 -26 -67 -28 -163 -112 -201 -177 -57 -96 -57 -95 -54 -921 l3 -759 32
-67 c60 -126 170 -213 302 -238 31 -6 247 -10 512 -10 l459 0 0 -115 0 -115
-770 0 -770 0 0 1330 0 1330 770 0 770 0 0 -115z m173 -472 c4 -49 14 -84 41
-137 l36 -70 -535 -536 c-294 -294 -535 -541 -535 -548 0 -29 21 -52 48 -52
22 0 118 91 561 534 l534 534 36 -24 c20 -14 65 -33 100 -44 58 -19 93 -20
475 -20 l411 0 -590 -590 -590 -590 -548 0 c-497 0 -552 2 -578 17 -55 33 -54
19 -54 793 0 676 1 717 18 744 37 55 35 55 623 56 l541 0 6 -67z m720 -1265
l-588 -588 -3 87 -3 87 588 588 588 588 3 -87 3 -87 -588 -588z"/>
</g>
</svg>
