<?xml version="1.0" standalone="no"?>
<!DOCTYPE svg PUBLIC "-//W3C//DTD SVG 20010904//EN"
 "http://www.w3.org/TR/2001/REC-SVG-20010904/DTD/svg10.dtd">
<svg version="1.0" xmlns="http://www.w3.org/2000/svg"
 width="200.000000pt" height="200.000000pt" viewBox="0 0 200.000000 200.000000"
 preserveAspectRatio="xMidYMid meet">

<g transform="translate(0.000000,200.000000) scale(0.100000,-0.100000)"
fill="#000000" stroke="none">
<path d="M1043 1936 c-154 -38 -295 -160 -353 -306 -97 -245 8 -519 243 -635
l79 -39 54 -107 c79 -158 107 -157 188 8 l48 99 68 32 c178 83 292 259 292
452 0 150 -41 249 -146 356 -131 131 -301 181 -473 140z m231 -239 c46 -36 66
-75 66 -131 0 -63 -13 -89 -69 -143 -27 -27 -54 -60 -60 -75 -9 -23 -17 -28
-45 -28 -45 0 -57 16 -46 63 9 40 23 63 55 87 67 49 82 96 43 137 -43 45 -137
20 -152 -42 -6 -22 -12 -25 -51 -25 -41 0 -45 2 -45 24 0 58 47 125 105 152
19 9 55 13 96 11 54 -2 73 -7 103 -30z m-69 -442 c14 -13 25 -31 25 -40 0 -9
-11 -27 -25 -40 -13 -14 -31 -25 -40 -25 -9 0 -27 11 -40 25 -14 13 -25 31
-25 40 0 9 11 27 25 40 13 14 31 25 40 25 9 0 27 -11 40 -25z"/>
<path d="M767 595 c-81 -23 -212 -91 -322 -166 -130 -89 -143 -103 -127 -130
30 -48 186 -241 199 -246 8 -3 32 9 53 26 62 49 71 50 194 19 67 -18 151 -31
211 -35 94 -5 106 -3 195 26 143 48 441 211 495 271 28 31 24 79 -9 107 -15
12 -37 23 -49 23 -48 -1 -207 -57 -234 -82 -59 -55 -88 -63 -223 -63 -69 0
-137 3 -152 8 -33 9 -46 43 -24 65 13 14 37 16 139 13 129 -3 176 7 207 43 21
26 18 83 -5 105 -18 17 -43 20 -260 25 -188 4 -251 2 -288 -9z"/>
</g>
</svg>
